PathFileType  4	(X/Y/Z) C:\Users\antoi\Documents\MyRepositories\mobilecap\ResultsAnalysis
DataRate	CameraRate	NumFrames	NumMarkers	Units	OrigDataRate	OrigDataStartFrame	OrigNumFrames
100.0	100.0	4	51	mm	100.0	95	151
Frame#	Time	r_knee			r_shank_antsup			r_ankle			r_calc			r_5meta			r_toe			L_knee			L_shank_antsup			L_ankle			L_calc			L_5meta			L_toe			r_sh2			r_sh3			r_sh4			L_sh2			L_sh3			r_thigh1			r_thigh2			r_thigh3			r_thigh4			r_thigh5			L_thigh1			L_thigh2			L_thigh3			L_thigh4			r.ASIS			r.PSIS			L.ASIS			L.PSIS			C7			R_Shoulder			L_Shoulder			R_Sternum			L_Sternum			R_humerus			R_elbow_med			R_elbow_lat			R_forearm			R_wrist_radius			R_wrist_ulna			L_humerus			L_elbow_med			L_elbow_lat			L_forearm			L_wrist_radius			L_wrist_ulna			R_HJC			L_HJC			R_HJC_reg			L_HJC_reg			
		X1	Y1	Z1	X2	Y2	Z2	X3	Y3	Z3	X4	Y4	Z4	X5	Y5	Z5	X6	Y6	Z6	X7	Y7	Z7	X8	Y8	Z8	X9	Y9	Z9	X10	Y10	Z10	X11	Y11	Z11	X12	Y12	Z12	X13	Y13	Z13	X14	Y14	Z14	X15	Y15	Z15	X16	Y16	Z16	X17	Y17	Z17	X18	Y18	Z18	X19	Y19	Z19	X20	Y20	Z20	X21	Y21	Z21	X22	Y22	Z22	X23	Y23	Z23	X24	Y24	Z24	X25	Y25	Z25	X26	Y26	Z26	X27	Y27	Z27	X28	Y28	Z28	X29	Y29	Z29	X30	Y30	Z30	X31	Y31	Z31	X32	Y32	Z32	X33	Y33	Z33	X34	Y34	Z34	X35	Y35	Z35	X36	Y36	Z36	X37	Y37	Z37	X38	Y38	Z38	X39	Y39	Z39	X40	Y40	Z40	X41	Y41	Z41	X42	Y42	Z42	X43	Y43	Z43	X44	Y44	Z44	X45	Y45	Z45	X46	Y46	Z46	X47	Y47	Z47	X48	Y48	Z48	X49	Y49	Z49	X50	Y50	Z50	X51	Y51	Z51	

95	0.94000000	1125.65202	636.77340	-19.85917	1088.33401	489.99717	-22.16103	833.70675	226.70168	-24.12515	774.43308	233.85533	-90.17529	912.02578	101.75897	10.35172	962.23600	101.49645	-38.56261	948.76889	596.63456	-299.59539	980.02878	395.31689	-256.30802	868.70035	104.19529	-227.29172	813.04650	74.24790	-159.64973	1010.73846	33.53356	-261.92457	1051.70101	64.68973	-203.65268	1022.68287	396.00881	-28.40941	1029.60934	524.33666	16.62051	964.95233	432.57780	19.28222	913.83207	402.98706	-313.58011	893.23587	290.61201	-286.45586	1061.87968	917.61968	6.89385	1118.89589	822.27433	4.00580	1075.09587	772.55146	12.81910	963.70042	864.76823	-8.84769	1021.55051	762.80296	-6.10216	1010.24303	892.64492	-338.56944	1007.93242	758.47474	-320.63392	901.63590	894.84268	-349.28482	902.67915	757.59336	-341.53948	1008.73022	1182.60549	-44.29193	821.32081	1200.28221	-129.06271	1002.33784	1171.43663	-322.09228	819.68257	1202.55058	-222.36676	874.76078	1694.02545	-198.26266	931.64958	1652.53813	-19.20267	944.54555	1654.84689	-371.44687	1012.73089	1606.61775	-160.90735	1017.39164	1605.88942	-218.60744	874.48400	1387.35343	53.80430	773.32379	1287.29880	10.46551	781.42297	1308.68887	81.61074	866.44511	1111.35737	114.10600	898.14509	1020.76867	113.58910	865.95310	1019.44541	136.68712	949.08576	1358.90248	-424.59314	857.96452	1283.49053	-381.83808	882.01606	1279.17320	-454.66393	986.52201	1099.16419	-467.89455	1025.32418	1028.52730	-455.67200	1001.53356	1024.98446	-481.02620	936.40329	1082.04195	-78.73345	924.85589	1079.05785	-275.84898	944.85382	1085.19486	-85.24291	941.63028	1089.65494	-268.70290	
96	0.95000000	1139.70849	638.82447	-21.10174	1107.83505	490.53522	-22.95374	865.21427	216.15141	-22.33723	804.65337	220.07892	-87.62273	950.09293	95.54707	11.60215	999.80058	97.86688	-37.93999	951.79795	596.45937	-299.72373	981.92926	395.07086	-256.51946	868.72248	104.42013	-227.31713	813.18751	74.41829	-159.61443	1010.73002	33.37450	-262.00927	1051.80957	64.47302	-203.74545	1046.15154	393.72117	-28.45961	1048.31911	522.31221	16.31791	987.64598	427.84636	19.81129	915.49060	402.96683	-313.73152	894.34492	290.71904	-286.55102	1073.33500	918.85246	6.43693	1130.90730	823.92385	2.99549	1087.50175	773.75050	11.80124	975.44593	865.32850	-9.68505	1034.04983	763.98511	-7.27886	1017.25409	891.90185	-338.33286	1013.34858	757.98474	-320.50726	908.63816	895.44737	-349.66242	907.97083	758.10605	-341.96067	1018.45326	1182.84424	-44.63057	830.81882	1200.52100	-128.85119	1011.81448	1171.12717	-322.36257	829.32507	1202.76899	-222.24158	885.19070	1694.12565	-198.69208	941.86025	1652.46522	-19.62728	954.80684	1654.89909	-371.91600	1022.91231	1606.45617	-161.31255	1027.60747	1605.73529	-219.04932	884.01601	1387.35253	53.33227	782.71751	1287.44251	9.84792	790.76483	1308.81184	81.02343	875.48735	1111.48723	113.63948	907.09259	1020.79364	113.14356	874.96557	1019.44612	136.11855	959.58309	1359.00836	-425.29788	868.37398	1283.35148	-382.85478	892.73284	1279.15406	-455.66259	998.82058	1099.97398	-468.16908	1038.28903	1029.82831	-455.68632	1014.49457	1025.93544	-481.16033	946.00944	1082.28039	-78.65554	934.14970	1078.97540	-275.74746	954.27687	1085.20078	-85.63258	951.33985	1089.61584	-269.07173	
97	0.96000000	1153.15499	640.43620	-22.48808	1126.77033	490.72034	-24.16650	897.29652	205.38851	-20.83171	835.62563	206.05464	-85.38757	988.60289	89.56144	12.43593	1037.67207	94.50841	-37.71470	955.03695	596.25809	-299.79651	983.87119	394.76548	-256.65136	868.76517	104.69972	-227.33016	813.20034	74.71050	-159.61687	1010.73045	33.23404	-262.07299	1051.92857	64.23889	-203.82674	1069.63182	391.32476	-28.81414	1066.91334	519.75403	15.91147	1010.39988	422.69886	20.21698	917.29727	402.94259	-313.82106	895.57156	290.83993	-286.60010	1084.38220	919.70210	5.88227	1142.40861	825.10693	1.86813	1099.27680	774.58351	10.69673	986.74663	865.67938	-10.65195	1045.91608	764.80078	-8.49094	1024.36002	891.07718	-338.07136	1018.84402	757.40687	-320.32945	915.64759	895.99618	-350.06303	913.37497	758.53312	-342.37502	1028.21988	1182.89143	-44.93916	840.33865	1200.63068	-128.59475	1021.32714	1170.68409	-322.60436	838.99193	1202.88753	-222.09253	895.65352	1694.10700	-199.08818	952.09065	1652.22918	-20.02469	965.08418	1654.82085	-372.37990	1033.13750	1606.15674	-161.70209	1037.84842	1605.43452	-219.47958	893.70218	1387.18832	52.88496	792.31251	1287.38594	9.28537	800.27584	1308.76345	80.41198	884.71664	1111.41658	113.17900	916.18997	1020.56445	112.65395	884.18882	1019.25869	135.57614	970.05940	1358.96968	-425.97554	878.75860	1283.07309	-383.84120	903.43528	1278.99326	-456.63471	1011.06072	1100.63912	-468.41144	1051.15111	1030.97603	-455.65549	1027.37572	1026.74795	-481.25797	955.62158	1082.35339	-78.56879	943.44749	1078.77279	-275.63682	963.71439	1085.02590	-86.02239	961.06936	1089.45239	-269.43971	
98	0.97000000	1165.98883	641.59558	-23.99991	1145.20430	490.63609	-25.72467	929.89158	194.58204	-19.68425	867.33156	191.94955	-83.56080	1027.44741	84.00348	12.85901	1075.74960	91.57401	-37.85217	958.46468	596.03259	-299.82467	985.85078	394.39538	-256.70818	868.84714	105.00088	-227.31653	813.13564	75.07631	-159.64077	1010.74700	33.10475	-262.11152	1052.07405	63.99282	-203.89796	1093.08599	388.91977	-29.49602	1085.33627	516.75979	15.37826	1033.14975	417.24835	20.44201	919.26907	402.90792	-313.87315	896.91734	290.97094	-286.61523	1095.04630	920.16547	5.23213	1153.43510	825.82076	0.62285	1110.46421	775.07112	9.52695	997.63677	865.81161	-11.67402	1057.16630	765.19741	-9.66127	1031.53863	890.18457	-337.79386	1024.41803	756.73656	-320.12009	922.63217	896.46460	-350.45432	918.90683	758.87281	-342.74913	1038.03411	1182.74053	-45.22750	849.90993	1200.61573	-128.32696	1030.88943	1170.10907	-322.82949	848.69808	1202.90932	-221.93926	906.14510	1693.96885	-199.45252	962.34534	1651.83555	-20.39162	975.38469	1654.61792	-372.81605	1043.40969	1605.73225	-162.07770	1048.11610	1605.00129	-219.89533	903.55411	1386.87381	52.45234	802.10912	1287.15152	8.77228	809.95082	1308.57488	79.74541	894.15519	1111.15650	112.72182	925.47611	1020.13422	112.14267	893.59927	1018.90739	135.06555	980.52043	1358.79912	-426.61636	889.13837	1282.67247	-384.78132	914.12152	1278.70846	-457.56371	1023.23159	1101.16951	-468.61770	1063.89152	1031.96569	-455.58193	1040.17247	1027.42698	-481.31177	965.24560	1082.25855	-78.49287	952.76432	1078.45232	-275.53758	973.18723	1084.67296	-86.41191	970.81044	1089.16531	-269.80674	
